# xmcd
#
# Track frame offsets: 
#        150
#        10359
#        22507
#        34338
#        49071
#        62162
#        72653
#        85953
#        95460
#        104638
#
# Disc length: 1512 seconds
#
# Revision: 0
# Processed by: cddbd v1.5.2PL0 Copyright (c) Steve Scherf et al.
# Submitted via: ExactAudioCopy v1.3
#
DISCID=8305e60a
DTITLE=Porter Wagoner - Tore Down
DYEAR=1974
DGENRE=Country
TTITLE0=Tore Down
TTITLE1=The Finish Line
TTITLE2=Nothing Between
TTITLE3=Cassie
TTITLE4=Graduation Day
TTITLE5=Old Black Kettle
TTITLE6=George Leroy Chickashea
TTITLE7=Somewhere In The Night
TTITLE8=I See Love
TTITLE9=Happy Faces
EXTD=
EXTT0=
EXTT1=
EXTT2=
EXTT3=
EXTT4=
EXTT5=
EXTT6=
EXTT7=
EXTT8=
EXTT9=
PLAYORDER=
